<?xml version="1.0" encoding="UTF-8"?>
<svg id="Layer_2" data-name="Layer 2" xmlns="http://www.w3.org/2000/svg" xmlns:xlink="http://www.w3.org/1999/xlink" viewBox="0 0 856.21 242.48">
  <defs>
    <style>
      .cls-1 {
        clip-path: url(#clippath);
      }

      .cls-2, .cls-3 {
        stroke-width: 0px;
      }

      .cls-2, .cls-4 {
        fill: none;
      }

      .cls-3 {
        fill: #006eff;
      }

      .cls-4 {
        stroke: #006eff;
        stroke-miterlimit: 10;
        stroke-width: 5px;
      }
    </style>
    <clipPath id="clippath">
      <circle class="cls-2" cx="719.19" cy="119.26" r="116.76"/>
    </clipPath>
  </defs>
  <g id="Layer_1-2" data-name="Layer 1">
    <g id="Layer_1-2" data-name="Layer 1-2">
      <g class="cls-1">
        <g>
          <path class="cls-3" d="M727.28,43.51c-2.27,0-4.5-.84-6.26-2.41-1.9-1.69-3.02-4.02-3.17-6.55-.02-.29-.02-.58,0-.86-.16-5.02,3.63-9.29,8.58-9.77.91-6.54,6.5-11.53,13.23-11.58,1.52-.03,3.04.2,4.5.7,1.8.58,3.49,1.56,4.9,2.86.97-.26,1.98-.37,2.98-.31,4.93-.15,9.14,3.58,9.69,8.42,4.43.75,7.85,4.57,7.93,9.22,0,.16,0,.31,0,.46.08,2.52-.82,4.92-2.54,6.77-1.73,1.86-4.08,2.94-6.62,3.03-.17,0-.34,0-.51,0h-32.15c-.18.01-.36.02-.54.02ZM727.35,26.57c-.09,0-.17,0-.26,0-3.75.14-6.69,3.31-6.55,7.06,0,.04,0,.07,0,.11,0,.22,0,.43,0,.65.22,3.75,3.47,6.63,7.19,6.4h32.25c.15,0,.27,0,.39,0,1.82-.07,3.5-.84,4.74-2.17,1.24-1.33,1.88-3.07,1.82-4.89,0-.03,0-.07,0-.1,0-.12,0-.24,0-.37-.06-3.67-3.04-6.62-6.68-6.69h-.27c-.74,0-1.34-.6-1.35-1.34,0-.37.14-.71.38-.96-.4-3.39-3.3-6-6.76-6-.07,0-.15,0-.23,0-.04,0-.09,0-.13,0-.93-.06-1.88.08-2.75.41-.51.19-1.08.06-1.46-.33-1.21-1.27-2.74-2.23-4.42-2.77-1.18-.41-2.38-.59-3.6-.57-5.74.04-10.42,4.55-10.69,10.26-.04.74-.67,1.3-1.4,1.29-.08,0-.17,0-.25,0Z"/>
          <path class="cls-3" d="M826.66,242.48h-40.14c-.35,0-.69-.14-.94-.38l-56.72-55.06c-.39-.38-.52-.97-.31-1.48.21-.51.7-.84,1.25-.84h23.55c.29,0,.58.1.81.27l73.31,55.06c.46.35.65.96.47,1.51-.18.55-.7.92-1.28.92ZM787.08,239.78h35.54l-69.71-52.36h-19.77l53.94,52.36ZM758.4,242.48h-40.2c-.5,0-.97-.28-1.2-.73l-28.43-55.06c-.22-.42-.2-.92.05-1.32s.68-.65,1.15-.65h23.58c.41,0,.79.18,1.04.5l45.05,55.06c.33.4.4.96.17,1.43s-.7.77-1.22.77ZM719.02,239.78h36.53l-42.84-52.36h-20.73l27.03,52.36ZM689.9,242.48h-40.17c-.75,0-1.35-.6-1.35-1.35v-55.06c0-.75.6-1.35,1.35-1.35h23.58c.59,0,1.12.39,1.29.96,5.51,18.21,11.09,36.74,16.59,55.07.12.41.04.85-.21,1.19s-.66.54-1.08.54ZM651.08,239.78h37.01c-5.23-17.44-10.53-35.04-15.77-52.36h-21.23v52.36ZM744.43,169.04h-97.69c-.75,0-1.35-.6-1.35-1.35s.6-1.35,1.35-1.35h97.69c.75,0,1.35.6,1.35,1.35s-.6,1.35-1.35,1.35ZM723.24,160.22c-.75,0-1.35-.6-1.35-1.35v-68.04h-20.74c-.75,0-1.35-.6-1.35-1.35s.6-1.35,1.35-1.35h11.82v-16.2c0-.75.6-1.35,1.35-1.35h3.56v-5.45c0-.75.6-1.35,1.35-1.35h2.93v-9.6c0-.75.6-1.35,1.35-1.35s1.35.6,1.35,1.35v9.6h10.96c.75,0,1.35.6,1.35,1.35v5.45h13.35c.75,0,1.35.6,1.35,1.35v58.6c0,.75-.6,1.35-1.35,1.35s-1.35-.6-1.35-1.35v-57.25h-20.48c-.75,0-1.35-.6-1.35-1.35s.6-1.35,1.35-1.35h5.78v-4.1h-13.89v5.45c0,.75-.6,1.35-1.35,1.35h-3.56v14.85h7.57c.75,0,1.35.6,1.35,1.35v69.39c0,.75-.6,1.35-1.35,1.35ZM698.06,160.12c-.75,0-1.35-.6-1.35-1.35v-21.05c0-.75.6-1.35,1.35-1.35s1.35.6,1.35,1.35v21.05c0,.75-.6,1.35-1.35,1.35ZM649.73,159.62c-.75,0-1.35-.6-1.35-1.35v-11.74c0-.75.6-1.35,1.35-1.35s1.35.6,1.35,1.35v11.74c0,.75-.6,1.35-1.35,1.35ZM779.1,133.48c-.75,0-1.35-.6-1.35-1.35v-14.03c0-.75.6-1.35,1.35-1.35s1.35.6,1.35,1.35v14.03c0,.75-.6,1.35-1.35,1.35ZM779.1,107.97c-.75,0-1.35-.6-1.35-1.35v-10.66c0-.75.6-1.35,1.35-1.35s1.35.6,1.35,1.35v10.66c0,.75-.6,1.35-1.35,1.35ZM775.11,92.65h-19.57c-.75,0-1.35-.6-1.35-1.35s.6-1.35,1.35-1.35h19.57c.75,0,1.35.6,1.35,1.35s-.6,1.35-1.35,1.35Z"/>
          <path class="cls-3" d="M667.24,169.51c-.75,0-1.35-.6-1.35-1.35v-18.41c0-.75.6-1.35,1.35-1.35s1.35.6,1.35,1.35v18.41c0,.75-.6,1.35-1.35,1.35Z"/>
          <path class="cls-3" d="M667.24,151.1c-.75,0-1.35-.6-1.35-1.35v-54.17c0-.75.6-1.35,1.35-1.35s1.35.6,1.35,1.35v54.17c0,.75-.6,1.35-1.35,1.35Z"/>
          <path class="cls-3" d="M666.68,151.1c-15.41,0-36.77-11.58-40.19-25.95-.64-2.67-3.54-16.34,2.02-22.76,1.34-1.56,1.03-3.88.6-7.08-.53-3.94-1.19-8.84,1.17-14.48,3.6-8.6,8.59-17.79,18.34-20.68,1.63-.52,12.12-3.27,14.42-3.55,8.09-1.83,16.73.24,23.12,5.53,7.67,5.6,11.76,11.52,12.1,17.55.4,3.32,1.76,6.52,3.94,9.17.03.03.06.07.08.11l.51.76c.64.95,1.3,1.93,1.94,3.01,5.13,8.52,4.73,19.53-1.4,38.01-2.61,9.82-12.9,17.34-26.81,19.55-.74.11-1.43-.39-1.54-1.12s.38-1.43,1.12-1.55c12.85-2.04,22.29-8.81,24.65-17.66,5.87-17.72,6.35-28.08,1.67-35.84-.61-1.02-1.25-1.97-1.87-2.89l-.48-.71c-2.48-3.04-4.04-6.7-4.5-10.6-.3-5.27-4.02-10.5-11.07-15.66-5.83-4.83-13.63-6.68-20.93-5.01-.05.01-.11.02-.16.03-1.71.18-11.99,2.83-14,3.46-8.69,2.57-13.29,11.12-16.64,19.14-2.08,4.97-1.5,9.28-.98,13.08.49,3.61.91,6.73-1.23,9.21-3.9,4.5-2.74,14.92-1.44,20.37,2.57,10.81,19.9,23.88,37.56,23.88.75,0,1.35.6,1.35,1.35s-.6,1.35-1.35,1.35Z"/>
          <path class="cls-3" d="M667.25,115.31c-.45,0-.9-.23-1.15-.64-.39-.64-.19-1.47.44-1.86l12.14-7.46c.64-.39,1.47-.19,1.86.44.39.64.19,1.47-.44,1.86l-12.14,7.46c-.22.14-.46.2-.71.2Z"/>
          <path class="cls-3" d="M667.24,125.39c-.24,0-.49-.06-.71-.2l-21.49-13.24c-.63-.39-.83-1.22-.44-1.86.39-.63,1.22-.83,1.86-.44l21.49,13.24c.63.39.83,1.22.44,1.86-.25.41-.7.64-1.15.64Z"/>
          <path class="cls-3" d="M667.25,138.13c-.45,0-.9-.23-1.15-.64-.39-.63-.19-1.47.44-1.86l21.96-13.53c.64-.39,1.47-.19,1.86.44.39.63.19,1.47-.44,1.86l-21.96,13.53c-.22.14-.47.2-.71.2Z"/>
          <path class="cls-3" d="M620.04,157.86s-.03,0-.04,0c-9.48-.3-19.33-6.42-21.51-13.35-4.34-11.85-4.99-18.97-2.21-24.53.45-.86.88-1.63,1.32-2.4.02-.04.06-.1.08-.13,1.18-1.66,1.84-3.6,1.91-5.63.46-4.76,2.94-8.96,6.81-11.63,3.81-3.48,9.06-4.81,14.07-3.57.72.13,3.48.84,5.7,1.43.72.19,1.15.93.95,1.65s-.94,1.15-1.65.95c-2.52-.68-4.97-1.29-5.56-1.4-4.24-1.05-8.6.07-11.75,2.98-.05.05-.1.09-.16.13-3.25,2.21-5.34,5.72-5.72,9.63-.08,2.45-.9,4.89-2.36,6.96-.42.74-.83,1.47-1.24,2.25-2.4,4.8-1.72,11.3,2.36,22.43,1.65,5.24,9.87,11.23,19.04,11.52.75.02,1.33.65,1.31,1.39-.02.73-.62,1.31-1.35,1.31Z"/>
          <path class="cls-3" d="M625.22,157.7c-.63,0-1.19-.44-1.32-1.09-.15-.73.33-1.44,1.06-1.59,5.83-1.17,10.96-4.74,14.08-9.8.39-.63,1.22-.83,1.86-.44.64.39.83,1.22.44,1.86-3.51,5.7-9.28,9.72-15.85,11.03-.09.02-.18.03-.27.03Z"/>
          <path class="cls-3" d="M620.08,169.61c-.75,0-1.35-.6-1.35-1.35v-20.13c0-.75.6-1.35,1.35-1.35s1.35.6,1.35,1.35v20.13c0,.75-.6,1.35-1.35,1.35Z"/>
          <path class="cls-3" d="M854.86,169.04h-1.56c-.28,0-.53-.08-.75-.23-.21.14-.47.23-.75.23h-3.32c-.2,0-.39-.04-.56-.12-.17.08-.36.12-.56.12h-103.46c-.34,0-.66-.13-.9-.34-.24.21-.55.34-.9.34h-3.32c-.28,0-.55-.09-.76-.24-.22.15-.48.24-.76.24h-1.56c-.75,0-1.35-.6-1.35-1.35s.6-1.35,1.35-1.35h1.56c.28,0,.55.09.76.24.22-.15.48-.24.76-.24h3.32c.34,0,.66.13.9.34.24-.21.55-.34.9-.34h9.03c-.4-.14-.79-.29-1.18-.46-4.93-2.1-8.75-5.99-10.75-10.96-2-4.97-1.95-10.42.15-15.35,3.15-7.41,10.39-12.2,18.45-12.21,1.53,0,3.07.17,4.57.5.73.16,1.19.88,1.03,1.61-.16.73-.88,1.19-1.61,1.03-1.31-.29-2.65-.43-3.99-.43-6.97,0-13.24,4.15-15.97,10.56-1.82,4.27-1.86,8.98-.13,13.29,1.73,4.3,5.04,7.67,9.3,9.48,8.81,3.75,19.02-.37,22.77-9.18,3.55-8.34.04-17.94-7.81-22.11l-6.76,15.82c-.29.69-1.08,1-1.77.71-.69-.29-1-1.09-.71-1.77l7.06-16.52c-.02-.22,0-.45.1-.66.09-.22.24-.4.41-.54l1.21-2.83c-1.58.2-3.23-.71-4.34-2.48-1.32-2.09-1.15-4.34.42-5.48.04-.03.08-.05.12-.08l10.55-6.06,7.05-11.52c.04-.07.1-.14.15-.21,4.7-5.15,12.72-5.53,17.89-.85,4.73,4.16,8.47,9.19,11.1,14.93,1.62,4.15,1.82,9.35-2.4,11.69l-2.36,1.4,16.38,18.45c.22.25.34.57.34.9v.5c0,.69-.51,1.26-1.2,1.34l-16.96,1.94c.67,3.36,2.32,6.45,4.81,8.92,3.29,3.26,7.68,5.08,12.3,5.03,4.64-.02,8.99-1.85,12.25-5.14,3.26-3.29,5.05-7.66,5.03-12.3-.02-4.64-1.85-8.99-5.14-12.25-3.27-3.24-7.61-5.03-12.21-5.03-.03,0-.06,0-.1,0-3.14,0-6.23.84-8.93,2.43-.64.38-1.47.17-1.85-.48-.38-.64-.17-1.47.48-1.85,3.12-1.84,6.67-2.81,10.29-2.81.04,0,.07,0,.11,0,5.31,0,10.32,2.06,14.11,5.81,3.81,3.77,5.92,8.8,5.94,14.16.03,5.36-2.04,10.4-5.81,14.21-2.19,2.21-4.79,3.84-7.65,4.83h19.68c.2,0,.39.04.56.12.17-.08.36-.12.56-.12h3.32c.28,0,.53.08.75.23.21-.14.47-.23.75-.23h1.56c.75,0,1.35.6,1.35,1.35s-.6,1.35-1.35,1.35ZM766.24,166.34h48.23c-2.79-.97-5.35-2.56-7.51-4.7-2.93-2.9-4.86-6.55-5.6-10.53l-5.97.68.04.62c.09.62,0,1.72-1.27,2.73-1.75,1.37-5.03,1.96-6.75,1.2-.87-.38-1.4-1.09-1.47-1.96l-1.44-9.67-13.79-19.51-1.88,4.4c9.22,4.77,13.36,15.95,9.23,25.66-2.29,5.39-6.68,9.26-11.82,11.07ZM788.62,154.07v.02s0-.01,0-.02ZM788.6,153.92c.41.12,1.48.13,2.67-.28.99-.34,1.44-.76,1.49-.91l-1.15-19.13c-.03-.5.22-.98.66-1.24l8.25-4.88c.23-.35.61-.58,1.03-.61l4.95-2.93c3.51-1.95,1.66-7.26,1.25-8.3-2.45-5.32-5.96-10.05-10.42-13.97-4.05-3.66-10.3-3.39-14.01.57l-7.16,11.7c-.12.19-.28.35-.48.47l-10.76,6.19c-.33.3-.1,1.16.31,1.81.44.69,1.34,1.51,2,1.15l11.35-6.52,7.76-8.18c.51-.54,1.35-.56,1.9-.06l8.46,7.83c.2.19.34.43.4.7l.4,1.82s0,.01,0,.02l.03.17c.1.52-.1,1.05-.53,1.36l-9.95,7.17c-.07.05-.14.09-.22.13-1.36.64-2.04,2.2-1.58,3.64.02.07.04.14.05.22l3.29,22.08ZM802.74,129.31l-5.84,19.6,4.15-.48c-.02-.31-.03-.63-.03-.95-.03-5.33,2.08-10.45,5.82-14.22l-3.72-4.19-.39.23ZM808.64,135.29c-3.16,3.25-4.94,7.63-4.92,12.18,0,.22,0,.44.02.65l14.79-1.69-9.89-11.14ZM794.36,134.27l.68,11.43,4.28-14.36-4.96,2.94ZM772.95,123.71l10.67,15.09-.96-6.46c-.8-2.65.44-5.51,2.91-6.74l.53-.38-13.15-1.5ZM776.42,121.39l12.94,1.48,5.35-3.85-.15-.71-7.17-6.63-6.98,7.36c-.09.1-.19.18-.31.24l-3.68,2.11ZM824.21,114.91h-7.1c-.75,0-1.35-.6-1.35-1.35s.6-1.35,1.35-1.35h7.1c.75,0,1.35.6,1.35,1.35s-.6,1.35-1.35,1.35ZM835.46,109.33h-1.59c-.61,0-1.13-.41-1.29-.96-.17.56-.68.96-1.29.96h-3.05c-.48,0-.91-.25-1.14-.63-.24.38-.66.63-1.14.63h-11.84c-.75,0-1.35-.6-1.35-1.35s.6-1.35,1.35-1.35h11.84c.48,0,.91.25,1.14.63.24-.38.66-.63,1.14-.63h3.05c.61,0,1.13.41,1.29.96.17-.56.68-.96,1.29-.96h1.59c.75,0,1.35.6,1.35,1.35s-.6,1.35-1.35,1.35ZM825.47,102.7h-2.29c-.56,0-1.04-.34-1.24-.83-.21.48-.68.83-1.24.83h-11.71c-.75,0-1.35-.6-1.35-1.35s.6-1.35,1.35-1.35h11.71c.56,0,1.04.34,1.24.83.21-.48.68-.83,1.24-.83h2.29c.75,0,1.35.6,1.35,1.35s-.6,1.35-1.35,1.35ZM781.56,97.93c-2.34,0-4.63-1.15-5.99-3.24-1.36-2.27-2.35-4.68-2.97-7.21-.05-.1-.09-.21-.11-.32-.2-1-.2-2.02,0-3.02.46-2.06,2.31-4,4.93-5.22,2.68-1.24,5.59-1.46,7.82-.64,1.59-1.13,3.75-2.27,6.08-1.72,1.98.46,3.66,2.09,5,4.84l.51,1.05c2.58,5.32,3.02,6.01,5.07,6.26.49.06.91.38,1.1.84s.1.98-.22,1.36c-.51.62-2.08,2.49-4.52,2.26-2.67-.26-5.37-2.94-8.46-8.39.4,1.93.53,3.9.39,5.89,0,.09-.02.18-.05.26-.75,2.7-2.63,4.93-5.17,6.12-1.08.6-2.26.88-3.42.88ZM775.65,88.34c.54,1.72,1.29,3.36,2.21,4.92,1.24,1.91,3.82,2.54,5.84,1.41.03-.02.06-.03.09-.05,1.8-.83,3.14-2.39,3.71-4.28.17-2.54-.18-5.04-1.03-7.44-.17-.44-.43-.85-.77-1.22-.25-.26-.53-.47-.85-.63-.03-.01-.06-.03-.09-.04-1.6-.8-4.01-.65-6.21.36-1.46.67-2.58,1.61-3.12,2.57.76,2.26,1.46,2.84,6.87,1.16.71-.22,1.47.18,1.69.89.22.71-.18,1.47-.89,1.69-3.02.94-5.55,1.55-7.46.67ZM788.54,79.48c1.76.53,2.69,2.27,3.06,2.95,3.66,6.76,5.92,7.94,6.94,8.04.1.01.21.01.32,0-1.65-1.08-2.66-3.18-4.44-6.86l-.51-1.05c-.96-1.98-2.04-3.12-3.19-3.39-.63-.15-1.35-.05-2.18.3Z"/>
        </g>
      </g>
      <circle class="cls-4" cx="719.16" cy="119.26" r="116.76"/>
    </g>
    <g>
      <path class="cls-3" d="M0,130.27V60.32h22.32v51.21h37.09v18.74H0Z"/>
      <path class="cls-3" d="M118.31,130.27l-3.72-11.45h-23.7l-3.93,11.45h-22.64l27.95-69.95h21.58l27.1,69.95h-22.64ZM109.6,101.87l-6.59-19.31-6.8,19.31h13.39Z"/>
      <path class="cls-3" d="M142.82,119.95l10.63-14.67c7.33,5.4,15.09,8.14,23.06,8.14,5,0,7.55-1.23,7.55-3.69,0-1.61-2.02-3.12-5.95-4.35-.96-.28-2.55-.76-4.89-1.33-4.57-1.23-8.82-2.46-12.22-3.98-8.82-3.88-13.18-10.03-13.18-18.46,0-6.44,2.87-11.74,8.61-16,5.74-4.26,13.07-6.34,22-6.34,10.84,0,20.51,2.84,29.12,8.52l-9.78,15.24c-2.34-1.51-5.42-2.75-9.14-3.79-3.72-1.04-7.01-1.61-9.88-1.61-5,0-7.33,1.51-7.33,3.41,0,2.27,2.34,3.22,6.16,4.26,7.97,2.18,12.97,3.69,15.09,4.45,10.63,3.69,15.94,10.03,15.94,18.84,0,6.63-2.98,12.11-8.82,16.47-5.85,4.26-13.71,6.44-23.59,6.44-13.29,0-24.34-3.88-33.37-11.55Z"/>
      <path class="cls-3" d="M233.6,79.25h-21.47v-18.93h65.15v18.93h-21.36v51.02h-22.32v-51.02Z"/>
      <path class="cls-3" d="M304.81,130.27V60.32h17.01l26.89,33.88,26.78-33.88h17.22v69.95h-21.89v-30.29l-17.86,21.86h-8.61l-17.86-21.86v30.29h-21.68Z"/>
      <path class="cls-3" d="M402.92,60.32h22.32v69.95h-22.32V60.32Z"/>
      <path class="cls-3" d="M433.58,130.27V60.32h22.32v51.21h37.09v18.74h-59.41Z"/>
      <path class="cls-3" d="M501.11,130.27V60.32h58.77v18.17h-36.45v7.76h33.69v18.08h-33.69v7.76h36.24v18.17h-58.56Z"/>
    </g>
    <g>
      <path class="cls-3" d="M91.04,162.13c0-4.6-1.93-7.4-6.4-7.4h-15.35v-4.79h16.41c4.6,0,7.65,1.93,9.32,4.85.93,1.74,1.49,3.92,1.49,7.21v20.2h-5.47v-20.08ZM69.28,165.12h5.47v17.1h-5.47v-17.1Z"/>
      <path class="cls-3" d="M121.69,162.13c0-4.6-1.87-7.4-6.4-7.4h-11.62v-4.79h12.68c4.6,0,7.65,1.93,9.33,4.85.93,1.74,1.43,3.92,1.43,7.21v20.2h-5.41v-20.08Z"/>
      <path class="cls-3" d="M139.03,154.73h-3.85v-4.79h9.39v32.26h-5.53v-27.48Z"/>
      <path class="cls-3" d="M153.27,177.42h17.22v-15.29c0-4.6-1.87-7.4-6.4-7.4h-10.51v-4.79h11.56c4.97,0,8.14,2.18,9.7,5.59.68,1.62,1.12,3.48,1.12,6.46v15.42h5.1v4.79h-27.79v-4.79Z"/>
      <path class="cls-3" d="M188.52,149.95h17.16c4.54,0,7.65,1.93,9.26,4.85.99,1.74,1.55,3.92,1.55,7.21v20.2h-5.47v-20.08c0-4.6-1.93-7.4-6.4-7.4h-10.63v27.48h-5.47v-32.26Z"/>
      <path class="cls-3" d="M224.57,182.02v-4.54c.81.19,1.62.37,2.86.37,2.67,0,4.6-.87,4.6-5.22v-17.9h-7.46v-4.79h23.37c4.79,0,7.89,2.11,9.39,4.85.93,1.68,1.43,3.92,1.43,7.15v20.27h-5.47v-20.08c0-4.6-1.8-7.4-6.34-7.4h-9.51v18.4c0,7.71-4.29,9.45-9.08,9.45-.93,0-2.36-.06-3.79-.56Z"/>
      <path class="cls-3" d="M271.01,154.73h-3.85v-4.79h9.39v32.26h-5.53v-27.48Z"/>
      <path class="cls-3" d="M301.1,149.95h17.28c4.54,0,7.65,1.93,9.26,4.85.99,1.74,1.55,3.92,1.55,7.21v20.2h-28.1v-32.26ZM323.72,177.42v-15.29c0-4.6-1.86-7.4-6.4-7.4h-10.75v22.69h17.16Z"/>
      <path class="cls-3" d="M341.32,154.73h-3.85v-4.79h9.39v20.64h-5.53v-15.85Z"/>
      <path class="cls-3" d="M372.21,162.13c0-4.6-1.87-7.4-6.4-7.4h-11.62v-4.79h12.68c4.6,0,7.65,1.93,9.33,4.85.93,1.74,1.43,3.92,1.43,7.21v20.2h-5.41v-20.08Z"/>
      <path class="cls-3" d="M386.08,177.42h5.22c1.93,0,3.61,0,5.04-.06l-10.94-27.41h5.97l10.44,26.42c2.92-1.18,4.29-3.85,5.22-9.64.75-4.72,1-10.38,1-14.36v-2.42h5.53c0,2.67-.06,5.72-.19,8.64-.19,4.1-.56,7.65-1.12,10.32-2.24,10.69-7.83,13.3-19.64,13.3h-6.53v-4.79Z"/>
      <path class="cls-3" d="M438.86,154.73h-4.48v-4.79h10.01v40.47h-5.53v-35.68Z"/>
      <path class="cls-3" d="M456.95,154.73h-3.85v-4.79h9.39v32.26h-5.53v-27.48Z"/>
      <path class="cls-3" d="M470.87,177.8h4.54c3.11,0,4.48-1.68,4.48-4.6v-18.46h-7.96v-4.79h13.37v22.38c0,3.11-.62,5.59-1.93,7.34-1.49,1.93-3.85,2.92-7.21,2.92h-5.28v-4.79Z"/>
      <path class="cls-3" d="M493.37,177.49h6.4c8.39,0,12.37-3.73,12.37-11.75,0-7.34-3.36-11.19-10.07-11.13l-8.39.06v-4.72h9.57c9.2,0,14.17,5.22,14.17,15.6,0,11.25-5.91,16.66-17.65,16.66h-6.4v-4.72Z"/>
      <path class="cls-3" d="M523.03,182.02v-4.54c.81.19,1.62.37,2.86.37,2.67,0,4.6-.87,4.6-5.22v-17.9h-7.46v-4.79h23.37c4.79,0,7.89,2.11,9.39,4.85.93,1.68,1.43,3.92,1.43,7.15v20.27h-5.47v-20.08c0-4.6-1.8-7.4-6.34-7.4h-9.51v18.4c0,7.71-4.29,9.45-9.08,9.45-.93,0-2.36-.06-3.79-.56Z"/>
    </g>
  </g>
</svg>